HIERARCHY
ROOT Hips
{
	OFFSET 0.00 0.00 0.00
	CHANNELS 6 Xposition Yposition Zposition Xrotation Yrotation Zrotation
	JOINT LeftUpLeg
	{
		OFFSET 3.64953 0.00000 0.00000
		CHANNELS 3 Xrotation Yrotation Zrotation
		JOINT LeftLeg
		{
			OFFSET 0.00000 -15.70580 0.00000
			CHANNELS 3 Xrotation Yrotation Zrotation
			JOINT LeftFoot
			{
				OFFSET 0.00000 -15.41867 0.00000
				CHANNELS 3 Xrotation Yrotation Zrotation
				JOINT LeftToeBase
				{
					OFFSET 0.00000 -1.53543 5.73033
					CHANNELS 3 Xrotation Yrotation Zrotation
					End Site
					{
						OFFSET 0.00000 0.00000 2.95275
					}
				}
			}
		}
	}
	JOINT RightUpLeg
	{
		OFFSET -3.64953 0.00000 0.00000
		CHANNELS 3 Xrotation Yrotation Zrotation
		JOINT RightLeg
		{
			OFFSET 0.00000 -15.70580 0.00000
			CHANNELS 3 Xrotation Yrotation Zrotation
			JOINT RightFoot
			{
				OFFSET 0.00000 -15.41867 0.00000
				CHANNELS 3 Xrotation Yrotation Zrotation
				JOINT RightToeBase
				{
					OFFSET 0.00000 -1.53543 5.73033
					CHANNELS 3 Xrotation Yrotation Zrotation
					End Site
					{
						OFFSET 0.00000 0.00000 2.95275
					}
				}
			}
		}
	}
	JOINT Spine
	{
		OFFSET 0.00000 0.03937 0.00000
		CHANNELS 3 Xrotation Yrotation Zrotation
		JOINT Spine1
		{
			OFFSET 0.00000 10.24829 0.00000
			CHANNELS 3 Xrotation Yrotation Zrotation
			JOINT Neck
			{
				OFFSET 0.00000 7.82687 0.00000
				CHANNELS 3 Xrotation Yrotation Zrotation
				JOINT Head
				{
					OFFSET 0.00000 6.90715 0.00000
					CHANNELS 3 Xrotation Yrotation Zrotation
					End Site
					{
						OFFSET 0.00000 4.52755 0.00000
					}
				}
			}
			JOINT LeftShoulder
			{
				OFFSET 0.00000 7.82687 0.00000
				CHANNELS 3 Xrotation Yrotation Zrotation
				JOINT LeftArm
				{
					OFFSET 6.71018 -0.00002 0.00000
					CHANNELS 3 Xrotation Yrotation Zrotation
					JOINT LeftForeArm
					{
						OFFSET 10.94419 -0.00004 0.00000
						CHANNELS 3 Xrotation Yrotation Zrotation
						JOINT LeftHand
						{
							OFFSET 8.52010 -0.00003 0.00000
							CHANNELS 3 Xrotation Yrotation Zrotation
							JOINT LeftHandThumb
							{
								OFFSET 0.00000 0.00000 0.00000
								CHANNELS 3 Xrotation Yrotation Zrotation
								End Site
								{
									OFFSET 0.00000 0.00000 3.93700
								}
							}
							JOINT L_Wrist_End
							{
								OFFSET 3.93700 -0.00001 0.00000
								CHANNELS 3 Xrotation Yrotation Zrotation
							}
						}
					}
				}
			}
			JOINT RightShoulder
			{
				OFFSET 0.00000 7.82687 0.00000
				CHANNELS 3 Xrotation Yrotation Zrotation
				JOINT RightArm
				{
					OFFSET -6.71018 -0.00002 0.00000
					CHANNELS 3 Xrotation Yrotation Zrotation
					JOINT RightForeArm
					{
						OFFSET -10.94419 -0.00004 0.00000
						CHANNELS 3 Xrotation Yrotation Zrotation
						JOINT RightHand
						{
							OFFSET -8.52010 -0.00003 0.00000
							CHANNELS 3 Xrotation Yrotation Zrotation
							JOINT RightHandThumb
							{
								OFFSET 0.00000 0.00000 0.00000
								CHANNELS 3 Xrotation Yrotation Zrotation
								End Site
								{
									OFFSET 0.00000 0.00000 3.93700
								}
							}
							JOINT R_Wrist_End
							{
								OFFSET -5.39369 -0.00002 0.00000
								CHANNELS 3 Xrotation Yrotation Zrotation
							}
						}
					}
				}
			}
		}
	}
}
MOTION
Frames: 19
Frame Time: 0.008333
 18.9364 36.5648 1.1279 4.5989 3.7043 7.9135 -12.4918 0.6304 5.9095 24.7255 -0.0000 0.0000 11.3714 1.4278 -13.5157 -17.7130 0.0000 -0.0000 -6.4785 -4.4450 1.4972 9.4227 -0.0000 -0.0000 11.0220 13.8175 1.4855 3.4343 -0.0000 0.0000 -1.3629 1.4159 -3.3771 10.5437 -3.6870 -6.8684 -7.7177 -4.1430 -6.5620 -12.8683 -3.1349 8.0036 19.7352 8.7468 -2.7199 -14.8739 -38.8341 -70.3719 -0.0001 -14.8790 -0.0000 -18.8118 -3.6035 -8.2417 0.0000 -0.0000 0.0000 0.0000 -0.0000 0.0000 14.1777 -18.6125 -2.4851 6.9377 37.7720 66.7467 -0.0001 35.1703 0.0000 -27.4902 -5.2778 11.7505 -0.0000 0.0000 0.0000 -0.0000 0.0000 0.0000
 18.6469 36.9097 1.1649 4.5114 3.4929 7.8675 -12.8907 1.0246 5.1897 26.5185 -0.0000 0.0000 10.8050 1.6426 -12.9069 -17.7056 0.0000 -0.0000 -6.2597 -3.8918 1.2200 9.0968 -0.0000 0.0000 12.0836 14.4642 0.8247 4.4387 0.0000 0.0000 -1.3739 1.5021 -3.3369 10.5645 -3.6009 -6.8754 -7.7814 -4.0820 -6.6609 -12.9885 -3.0156 7.9297 19.7808 8.8075 -2.8854 -14.7645 -38.8384 -70.2655 -0.0001 -14.7609 -0.0000 -19.6887 -4.1667 -8.3836 -0.0000 0.0000 -0.0000 -0.0000 0.0000 -0.0000 14.3391 -18.5787 -2.4649 6.4779 37.2870 67.1078 -0.0001 34.3227 0.0000 -27.8653 -4.9843 11.1454 -0.0000 -0.0000 0.0000 -0.0000 -0.0000 0.0000
 18.3613 37.2280 1.2188 4.2612 3.1447 7.8103 -12.9150 1.5413 4.4944 28.0227 -0.0000 0.0000 10.2588 2.0828 -12.6536 -17.6628 0.0000 0.0000 -5.9742 -2.8041 0.9055 9.3402 -0.0000 -0.0000 11.5049 13.8318 0.7891 4.1998 0.0000 0.0000 -1.3586 1.7162 -3.2520 10.7916 -3.3729 -6.8532 -7.8654 -4.0575 -6.8244 -13.0648 -2.9529 7.8923 20.0373 8.7848 -3.0946 -14.8468 -39.0828 -70.0579 -0.0001 -14.6694 -0.0000 -20.4903 -4.5306 -8.8084 0.0000 -0.0000 -0.0000 0.0000 -0.0000 -0.0000 13.8881 -18.2693 -2.6445 6.4987 36.1411 67.7268 -0.0001 33.5860 0.0000 -27.4594 -4.7730 10.6445 0.0000 -0.0000 -0.0000 0.0000 -0.0000 -0.0000
 18.0780 37.5122 1.2625 4.0716 2.9428 7.7076 -13.1422 2.1133 3.8467 29.7060 -0.0000 0.0000 9.5249 2.4164 -12.3397 -17.6148 0.0000 -0.0000 -5.9221 -1.6252 0.5197 10.0286 -0.0000 0.0000 10.3965 12.2229 0.8098 4.2043 -0.0000 -0.0000 -1.3463 1.8175 -3.1599 10.9094 -3.2498 -6.7700 -7.9444 -3.9508 -6.8315 -13.0758 -2.8119 7.6354 20.0994 8.8802 -3.1703 -14.9248 -39.0860 -70.1707 -0.0001 -14.5989 -0.0000 -20.4923 -4.9174 -9.1213 0.0000 0.0000 0.0000 0.0000 0.0000 0.0000 13.9349 -18.1036 -2.6662 6.1939 35.8500 67.9826 -0.0001 32.6393 0.0000 -27.2187 -4.3846 10.0142 0.0000 -0.0000 -0.0000 0.0000 -0.0000 -0.0000
 17.7957 37.7680 1.3038 3.8489 2.6604 7.5723 -13.2963 2.8986 3.2985 31.3057 -0.0000 0.0000 8.7003 2.5403 -12.1102 -17.3537 0.0000 0.0000 -5.8938 -0.4105 0.1177 10.9240 -0.0000 0.0000 9.3990 10.3915 0.5328 4.2918 0.0000 0.0000 -1.3165 1.9681 -3.0454 11.0986 -3.0638 -6.6358 -7.9782 -3.9006 -6.9059 -13.2633 -2.6917 7.5234 20.1562 9.0035 -3.2096 -15.0865 -39.1369 -70.3880 -0.0001 -14.6006 -0.0000 -20.0674 -5.2149 -9.2253 0.0000 -0.0000 0.0000 0.0000 -0.0000 0.0000 13.8693 -17.9082 -2.7287 5.9370 35.6390 68.2396 -0.0001 31.6731 0.0000 -26.7998 -4.0879 9.2325 0.0000 0.0000 0.0000 0.0000 0.0000 0.0000
 17.5120 37.9959 1.3436 3.6033 2.3534 7.4030 -13.3776 3.7830 2.8547 32.7423 -0.0000 0.0000 8.0099 2.2663 -11.9988 -17.1615 -0.0000 0.0000 -5.8987 0.6314 -0.3090 12.0266 -0.0000 0.0000 8.4154 8.6201 -0.0511 4.3897 0.0000 0.0000 -1.2795 2.1377 -2.9254 11.3158 -2.8451 -6.4506 -7.9977 -3.8571 -6.9424 -13.4281 -2.5861 7.3875 20.1973 9.1339 -3.1743 -15.2770 -39.2491 -70.7027 -0.0001 -14.6752 -0.0000 -19.1879 -5.1847 -9.3055 0.0000 0.0000 0.0000 0.0000 0.0000 0.0000 13.7929 -17.7088 -2.7626 5.7116 35.5913 68.3809 -0.0001 30.6722 0.0000 -26.1747 -3.9183 8.6762 -0.0000 -0.0000 0.0000 -0.0000 -0.0000 0.0000
 17.2239 38.1966 1.4018 3.1862 2.0224 7.1080 -13.1731 4.6911 2.6156 33.9404 -0.0000 0.0000 7.3054 1.6124 -12.2080 -16.9532 0.0000 0.0000 -5.6746 1.2317 -0.6714 13.1047 -0.0000 0.0000 7.4264 7.0935 -0.7760 4.7555 0.0000 0.0000 -1.1701 2.3188 -2.7681 11.6475 -2.5568 -6.0916 -7.9967 -3.8634 -6.9874 -13.6626 -2.5015 7.1763 20.3245 9.1719 -3.1667 -15.4677 -39.4235 -71.0104 -0.0001 -14.8998 -0.0000 -18.4672 -4.9027 -9.2815 -0.0000 -0.0000 0.0000 -0.0000 -0.0000 0.0000 13.7661 -17.6088 -2.6950 5.5753 35.7626 68.2187 -0.0001 29.8122 0.0000 -25.5604 -4.2193 8.1644 0.0000 0.0000 -0.0000 0.0000 0.0000 -0.0000
 16.9469 38.3692 1.4269 2.9960 1.6330 6.9693 -13.2518 5.5449 2.2077 35.0945 -0.0000 0.0000 6.8562 0.7838 -12.1239 -16.7327 0.0000 -0.0000 -5.8128 1.6383 -1.2913 14.3773 -0.0000 0.0000 6.1729 5.7344 -1.2557 4.8266 0.0000 0.0000 -1.0911 2.4613 -2.6599 11.7313 -2.3587 -5.9146 -8.0139 -3.7703 -7.0400 -13.7435 -2.3833 7.1500 20.2680 9.4115 -3.0086 -15.5683 -39.5432 -71.5368 -0.0001 -15.0502 -0.0000 -17.5599 -4.6526 -9.2246 -0.0000 -0.0000 0.0000 -0.0000 -0.0000 0.0000 13.5626 -17.3868 -2.8418 5.3097 36.1717 68.3353 -0.0001 28.5324 0.0000 -25.0657 -4.0777 8.0151 -0.0000 -0.0000 -0.0000 -0.0000 -0.0000 -0.0000
 16.6800 38.5147 1.4588 2.7860 1.1624 6.7946 -13.2111 6.3539 1.8409 36.0500 -0.0000 0.0000 6.4467 -0.1884 -12.3443 -16.3814 0.0000 -0.0000 -6.0129 1.6963 -1.9631 15.8656 -0.0000 0.0000 4.6442 4.7812 -2.2092 5.0455 0.0000 0.0000 -1.0279 2.6205 -2.5287 11.8302 -2.1311 -5.6807 -7.9868 -3.6622 -6.9317 -13.8625 -2.1994 6.8234 20.3126 9.6206 -2.8559 -15.7153 -39.6106 -72.1244 -0.0001 -15.3509 -0.0000 -16.8476 -4.2144 -8.9517 -0.0000 -0.0000 0.0000 -0.0000 -0.0000 0.0000 13.4899 -17.1091 -2.9079 5.1135 36.7380 68.1840 -0.0001 27.4277 0.0000 -24.5228 -4.2533 7.8691 0.0000 0.0000 0.0000 0.0000 0.0000 0.0000
 16.3902 38.6387 1.5069 2.4999 0.7915 6.5169 -12.9928 6.8273 1.6095 36.5829 -0.0000 0.0000 6.5579 -1.4969 -12.3979 -16.6343 0.0000 -0.0000 -5.8472 1.4663 -2.5514 16.5999 -0.0000 0.0000 3.6991 3.9275 -3.0287 5.0232 -0.0000 0.0000 -0.9051 2.7627 -2.3998 11.9260 -1.8715 -5.3118 -7.9937 -3.5976 -7.0745 -13.9296 -2.1098 6.9063 20.3102 9.7223 -2.7510 -15.5795 -39.6776 -72.4867 -0.0001 -15.8123 -0.0000 -15.8039 -3.2583 -9.3802 -0.0000 -0.0000 -0.0000 -0.0000 -0.0000 -0.0000 13.5435 -17.1677 -2.7171 4.9450 37.5381 67.7145 -0.0001 26.4824 0.0000 -24.2565 -4.6546 7.9239 0.0000 -0.0000 0.0000 0.0000 -0.0000 0.0000
 16.1295 38.7338 1.5292 2.3491 0.2635 6.3643 -12.8957 7.2370 1.1620 37.0096 -0.0000 0.0000 6.7074 -2.4065 -12.8139 -16.2943 0.0000 0.0000 -6.0946 1.4035 -3.3562 17.8711 -0.0000 0.0000 2.3112 3.3487 -4.2103 5.0402 -0.0000 0.0000 -0.8457 2.9040 -2.2561 11.9165 -1.6636 -5.0938 -7.8211 -3.5324 -7.0274 -14.2183 -1.8308 6.6650 20.3384 9.9759 -2.5403 -15.7239 -39.5873 -73.1628 -0.0001 -16.1128 -0.0000 -15.7526 -2.7554 -10.0008 0.0000 0.0000 -0.0000 0.0000 0.0000 -0.0000 13.3403 -16.8350 -2.8758 4.7770 38.2242 67.6017 -0.0001 25.3154 0.0000 -23.6838 -4.8046 8.1318 0.0000 0.0000 0.0000 0.0000 0.0000 0.0000
 15.8597 38.8067 1.5569 2.2323 -0.2025 6.1961 -12.7166 7.4589 0.7344 37.0150 -0.0000 0.0000 7.1093 -3.2978 -13.2450 -16.0880 0.0000 0.0000 -6.2932 1.1123 -4.1646 18.8324 -0.0000 0.0000 1.1767 2.9337 -5.2447 5.0955 -0.0000 0.0000 -0.7921 3.0205 -2.1321 11.8616 -1.4745 -4.8543 -7.7357 -3.4035 -7.0592 -14.3485 -1.6022 6.6236 20.3229 10.2132 -2.3352 -15.6442 -39.4470 -73.7006 -0.0001 -16.6625 -0.0000 -15.9167 -1.9316 -10.5795 -0.0000 0.0000 0.0000 -0.0000 0.0000 0.0000 13.2278 -16.6018 -2.8396 4.6651 38.9301 67.2768 -0.0001 24.3526 0.0000 -23.5141 -5.1162 8.3864 0.0000 0.0000 0.0000 0.0000 0.0000 0.0000
 15.5954 38.8533 1.5891 2.1254 -0.6087 6.0220 -12.4585 7.4708 0.2616 36.7151 -0.0000 0.0000 7.4233 -3.9124 -13.9782 -15.8688 0.0000 -0.0000 -6.5055 0.7616 -5.0125 19.7233 -0.0000 0.0000 0.0359 2.6764 -6.0980 5.4230 -0.0000 0.0000 -0.7598 3.1247 -1.9905 11.7874 -1.2935 -4.5922 -7.5960 -3.3384 -7.0855 -14.5362 -1.3581 6.5059 20.2744 10.3982 -2.0814 -15.4948 -39.4484 -74.2569 -0.0001 -17.0473 -0.0000 -16.3039 -1.5769 -11.1995 -0.0000 -0.0000 -0.0000 -0.0000 -0.0000 -0.0000 13.1237 -16.4169 -2.8249 4.5572 39.6882 66.9595 -0.0001 23.4045 0.0000 -23.2771 -5.4130 8.7144 0.0000 0.0000 0.0000 0.0000 0.0000 0.0000
 15.3311 38.8746 1.6226 2.0388 -0.9972 5.8423 -12.1368 7.3568 -0.2180 36.1242 -0.0000 0.0000 7.5100 -4.3016 -14.8411 -15.4894 0.0000 0.0000 -6.7274 0.4370 -5.8771 20.5026 -0.0000 0.0000 -0.9635 2.5554 -6.7123 5.7477 -0.0000 0.0000 -0.7376 3.2164 -1.8477 11.6901 -1.1217 -4.3128 -7.4985 -3.2403 -7.1082 -14.6026 -1.1087 6.3520 20.2079 10.5754 -1.8422 -15.2624 -39.4711 -74.7495 -0.0001 -17.4604 -0.0000 -16.8199 -1.2900 -11.9273 0.0000 0.0000 -0.0000 0.0000 0.0000 -0.0000 13.0137 -16.2807 -2.8015 4.4643 40.4157 66.6287 -0.0001 22.5898 0.0000 -22.9764 -5.7261 9.1366 -0.0000 -0.0000 0.0000 -0.0000 -0.0000 0.0000
 15.0644 38.8671 1.6552 1.9696 -1.3444 5.6500 -11.7944 7.1431 -0.6709 35.3232 -0.0000 0.0000 7.3003 -4.6547 -15.6388 -15.2375 0.0000 -0.0000 -6.9497 0.0784 -6.7524 21.1629 -0.0000 0.0000 -1.8121 2.6336 -7.2134 5.8194 0.0000 0.0000 -0.7297 3.2921 -1.7142 11.5703 -0.9606 -4.0072 -7.3614 -3.1605 -7.0975 -14.6840 -0.8405 6.1387 20.1333 10.7563 -1.5696 -15.0133 -39.5524 -75.2460 -0.0001 -17.8506 -0.0000 -17.1765 -1.1765 -12.6101 -0.0000 -0.0000 -0.0000 -0.0000 -0.0000 -0.0000 12.9360 -16.1642 -2.7343 4.4786 41.1509 66.1835 -0.0001 21.9807 0.0000 -22.6283 -6.0382 9.4652 -0.0000 0.0000 -0.0000 -0.0000 0.0000 -0.0000
 14.7946 38.8305 1.6888 1.9168 -1.6546 5.4376 -11.4495 6.8606 -1.0767 34.3616 -0.0000 0.0000 6.8384 -5.0814 -16.2572 -15.0197 0.0000 -0.0000 -7.2045 -0.3102 -7.6238 21.7759 -0.0000 0.0000 -2.5118 2.8732 -7.6698 6.0261 0.0000 0.0000 -0.7491 3.3654 -1.5736 11.4559 -0.8008 -3.6877 -7.2440 -3.0756 -7.0886 -14.7029 -0.5895 5.9347 20.0763 10.9252 -1.2808 -14.7826 -39.6212 -75.7086 -0.0001 -18.2828 -0.0000 -17.3952 -1.0067 -13.3772 -0.0000 0.0000 0.0000 -0.0000 0.0000 0.0000 12.8414 -16.0903 -2.7141 4.4147 41.7964 65.8753 -0.0001 21.4248 0.0000 -22.2412 -6.3189 9.7202 -0.0000 0.0000 0.0000 -0.0000 0.0000 0.0000
 14.5209 38.7681 1.7199 1.8807 -1.9344 5.2046 -11.1142 6.4830 -1.4349 33.2684 -0.0000 0.0000 6.1831 -5.5460 -16.7316 -14.7664 0.0000 0.0000 -7.4842 -0.6914 -8.4820 22.3361 -0.0000 0.0000 -3.0407 3.1702 -8.0462 6.1057 -0.0000 -0.0000 -0.8057 3.4335 -1.4390 11.3957 -0.6435 -3.3452 -7.1471 -2.9933 -7.0586 -14.7419 -0.3667 5.7264 19.9692 11.0911 -0.9665 -14.5535 -39.7139 -76.1673 -0.0001 -18.7287 -0.0000 -17.6075 -0.8817 -14.0994 -0.0000 0.0000 -0.0000 -0.0000 0.0000 -0.0000 12.7464 -16.0262 -2.6745 4.3299 42.3354 65.5700 -0.0001 21.0275 0.0000 -22.0221 -6.6061 9.9218 0.0000 0.0000 0.0000 0.0000 0.0000 0.0000
 14.2451 38.6781 1.7467 1.8661 -2.2318 4.9492 -10.7973 5.9945 -1.7493 32.0647 -0.0000 0.0000 5.4145 -6.1009 -17.0454 -14.6202 0.0000 -0.0000 -7.8104 -1.0335 -9.3132 22.8659 -0.0000 0.0000 -3.5026 3.4298 -8.2625 6.3955 0.0000 0.0000 -0.8272 3.5151 -1.3009 11.2776 -0.4662 -2.9857 -7.1299 -2.8684 -7.0634 -14.6581 -0.1752 5.5748 19.8175 11.2697 -0.6588 -14.2295 -39.8616 -76.5612 -0.0001 -19.2405 -0.0000 -17.5496 -0.6777 -14.7185 -0.0000 -0.0000 0.0000 -0.0000 -0.0000 0.0000 12.6474 -16.0135 -2.6403 4.2430 42.8291 65.2701 -0.0001 20.7383 0.0000 -22.0264 -6.9043 10.2037 -0.0000 -0.0000 0.0000 -0.0000 -0.0000 0.0000
 13.9636 38.5604 1.7815 1.8641 -2.4699 4.6959 -10.5047 5.3654 -2.0434 30.8279 -0.0000 0.0000 4.5108 -6.6570 -17.3406 -14.0652 0.0000 0.0000 -8.1238 -1.4300 -10.1285 23.3303 -0.0000 0.0000 -3.8469 3.6536 -8.8441 6.3364 -0.0000 0.0000 -0.8957 3.5900 -1.1755 11.1509 -0.3014 -2.6401 -6.9985 -2.8255 -7.0202 -14.6939 0.0109 5.4044 19.7219 11.4176 -0.3243 -13.8957 -40.0800 -76.8839 -0.0001 -19.7895 -0.0000 -17.6162 -0.4932 -15.2871 0.0000 -0.0000 0.0000 0.0000 -0.0000 0.0000 12.5890 -16.0016 -2.6507 3.9495 43.2146 65.2010 -0.0001 20.3612 0.0000 -21.8271 -6.9633 10.5261 -0.0000 -0.0000 0.0000 -0.0000 -0.0000 0.0000
